<svg width="1000" height="1000" viewBox="0 0 1000 1000" fill="none"
  xmlns="http://www.w3.org/2000/svg">
  <g clip-path="url(#clip0_11_10)">
    <rect width="1000" height="1000" fill="#F27400" />
    <circle cx="500" cy="500" r="500" fill="#F27400" />
    <path
      d="M125.455 284.91V322.175L162.72 311.735V465H207.525V267.22H182.15L125.455 284.91ZM336.953 315.36C316.073 315.36 299.253 323.915 288.813 341.025V257.36H245.458V465H287.073L288.088 441.365C298.528 459.2 315.638 468.19 336.808 468.19C375.958 468.19 401.478 438.32 401.478 391.92C401.478 345.52 376.248 315.36 336.953 315.36ZM321.293 432.81C300.703 432.81 286.493 418.165 286.493 391.92C286.493 365.53 300.703 350.885 321.293 350.885C342.028 350.885 356.093 365.965 356.093 391.92C356.093 417.73 342.028 432.81 321.293 432.81ZM510.589 429.185C505.369 430.78 497.539 432.955 490.144 432.955C477.384 432.955 471.584 428.315 471.584 417.295V352.045H511.314V319.13H471.584V274.035L428.229 284.91V319.13H403.434V352.045H428.229V427.155C428.229 458.33 445.919 468.48 474.484 468.48C489.129 468.48 502.614 465.87 512.329 462.97L510.589 429.185ZM631.938 423.82C624.688 428.895 613.958 431.795 602.648 431.795C580.753 431.795 562.483 419.905 562.483 392.065C562.483 364.66 580.898 352.19 602.648 352.19C613.813 352.19 622.803 354.8 630.198 358.715L631.938 322.755C621.933 317.97 609.173 315.65 595.398 315.65C547.838 315.65 518.548 345.085 518.548 392.065C518.548 439.19 546.678 468.48 594.238 468.48C609.463 468.48 622.803 465.58 633.533 460.65L631.938 423.82ZM158.805 677.755C174.175 677.755 187.515 669.345 187.515 652.67C187.515 635.85 174.175 627.875 158.805 627.875C143.435 627.875 129.95 635.85 129.95 652.67C129.95 669.345 143.435 677.755 158.805 677.755ZM302.824 525.65C277.884 525.65 260.484 538.12 252.509 557.26V529.13H211.474V675H254.829V580.025C260.629 566.395 271.649 559.58 283.829 559.58C297.314 559.58 306.014 567.555 306.014 586.26V675H349.369V575.53C349.369 538.99 328.924 525.65 302.824 525.65ZM512.437 597.135C512.437 550.01 484.307 525.65 443.997 525.65C399.192 525.65 367.872 556.68 367.872 602.79C367.872 647.885 396.002 678.48 449.507 678.48C476.332 678.48 496.197 671.81 508.232 664.995L504.897 633.675C493.732 639.185 477.927 644.115 459.657 644.115C431.382 644.115 413.112 634.69 409.487 609.605H512.437V597.135ZM442.692 556.535C459.802 556.535 470.967 566.54 472.852 585.825H410.212C413.837 566.395 425.872 556.535 442.692 556.535ZM686.61 629.76L655.29 529.13H616.865L584.965 631.065L555.385 529.13H511.595L560.46 675H603.38L633.395 581.04L663.7 675H706.91L754.615 529.13H716.335L686.61 629.76ZM758.065 571.76C758.065 601.775 781.12 610.91 811.715 616.71C827.81 620.045 837.38 623.38 837.38 632.66C837.38 641.795 828.245 646.58 813.31 646.58C793.735 646.58 772.42 639.62 757.485 630.775L755.89 663.98C769.81 671.81 788.66 678.48 814.325 678.48C860.145 678.48 877.835 657.31 877.835 629.615C877.835 596.845 854.345 589.015 823.025 583.07C808.67 579.88 798.955 577.995 798.955 568.425C798.955 559.87 807.075 556.97 818.965 556.97C833.755 556.97 852.75 560.595 866.815 567.99L868.555 535.8C854.925 529.855 839.7 525.65 819.835 525.65C780.975 525.65 758.065 541.31 758.065 571.76Z"
      fill="white" />
  </g>
  <defs>
    <clipPath id="clip0_11_10">
      <rect width="1000" height="1000" fill="white" />
    </clipPath>
  </defs>
</svg>
  